<svg xmlns="http://www.w3.org/2000/svg" viewBox="0 0 100 100">
  <g fill="currentColor">
    <!-- O - The large circular part -->
    <path d="M 50 15 C 30.67 15 15 30.67 15 50 C 15 69.33 30.67 85 50 85 C 69.33 85 85 69.33 85 50 C 85 30.67 69.33 15 50 15 Z M 50 25 C 63.807 25 75 36.193 75 50 C 75 63.807 63.807 75 50 75 C 36.193 75 25 63.807 25 50 C 25 36.193 36.193 25 50 25 Z" />
    
    <!-- A - The triangle overlapping the O -->
    <path d="M 50 20 L 25 85 L 35 85 L 40 72 L 60 72 L 65 85 L 75 85 L 50 20 Z M 43 62 L 50 42 L 57 62 L 43 62 Z" />
    
    <!-- A - Thicker right leg to match the image style -->
    <path d="M 50 20 L 65 85 L 75 85 L 50 20 Z" />
  </g>
</svg>
